<?xml version="1.0" standalone="no"?><svg xmlns:xlink="http://www.w3.org/1999/xlink" xmlns="http://www.w3.org/2000/svg" viewBox="0 0 1000 666.6666666666667" preserveAspectRatio="xMaxYMax slice"><g transform="scale(0.9534706331045004)"><rect x="0" y="0" width="1048.8000000000002" height="699.2" fill="#ffffff"/><rect x="262.2" y="87.4" width="87.4" height="87.4" fill="#fbfbfd"/><g transform="translate(262.2,87.4) scale(4.37) rotate(0)"><path d="M19.9981 0.00193429L3.72652 -7.68637e-07L8.4784 4.75382L0 13.2345L6.76585 20L15.2462 11.5208L20 16.2746L19.9981 0.00193429Z" fill="#dce0ed"/></g><rect x="437" y="174.8" width="87.4" height="87.4" fill="#e5e8f2"/><g transform="translate(437,174.8) scale(4.37) rotate(0)"><path d="M19.9981 0.00193429L3.72652 -7.68637e-07L8.4784 4.75382L0 13.2345L6.76585 20L15.2462 11.5208L20 16.2746L19.9981 0.00193429Z" fill="#b8bfda"/></g><rect x="524.4" y="174.8" width="87.4" height="87.4" fill="#dfe2ee"/><g transform="translate(524.4,174.8) scale(4.37) rotate(0)"><path d="M19.9981 0.00193429L3.72652 -7.68637e-07L8.4784 4.75382L0 13.2345L6.76585 20L15.2462 11.5208L20 16.2746L19.9981 0.00193429Z" fill="#e8ebf3"/></g><rect x="611.8" y="174.8" width="87.4" height="87.4" fill="#eceef5"/><g transform="translate(611.8,174.8) scale(4.37) rotate(0)"><path fill-rule="evenodd" clip-rule="evenodd" d="M10 20C15.5228 20 20 15.5228 20 10C20 4.47715 15.5228 0 10 0C4.47715 0 0 4.47715 0 10C0 15.5228 4.47715 20 10 20ZM10 17C13.866 17 17 13.866 17 10C17 6.13401 13.866 3 10 3C6.13401 3 3 6.13401 3 10C3 13.866 6.13401 17 10 17Z" fill="#eff1f7"/></g><rect x="699.2" y="174.8" width="87.4" height="87.4" fill="#c5cbe1"/><g transform="translate(699.2,174.8) scale(4.37) rotate(0)"><path d="M19.9981 0.00193429L3.72652 -7.68637e-07L8.4784 4.75382L0 13.2345L6.76585 20L15.2462 11.5208L20 16.2746L19.9981 0.00193429Z" fill="#fcfcfe"/></g><rect x="874" y="174.8" width="87.4" height="87.4" fill="#c6cce1"/><g transform="translate(874,174.8) scale(4.37) rotate(0)"><path fill-rule="evenodd" clip-rule="evenodd" d="M10 20C15.5228 20 20 15.5228 20 10C20 4.47715 15.5228 0 10 0C4.47715 0 0 4.47715 0 10C0 15.5228 4.47715 20 10 20ZM10 17C13.866 17 17 13.866 17 10C17 6.13401 13.866 3 10 3C6.13401 3 3 6.13401 3 10C3 13.866 6.13401 17 10 17Z" fill="#e4e7f1"/></g><rect x="349.6" y="262.2" width="87.4" height="87.4" fill="#c6cce1"/><g transform="translate(349.6,262.2) scale(4.37) rotate(0)"><path fill-rule="evenodd" clip-rule="evenodd" d="M10 20C15.5228 20 20 15.5228 20 10C20 4.47715 15.5228 0 10 0C4.47715 0 0 4.47715 0 10C0 15.5228 4.47715 20 10 20ZM10 17C13.866 17 17 13.866 17 10C17 6.13401 13.866 3 10 3C6.13401 3 3 6.13401 3 10C3 13.866 6.13401 17 10 17Z" fill="#fdfdfe"/></g><rect x="437" y="262.2" width="87.4" height="87.4" fill="#cbd1e4"/><g transform="translate(437,262.2) scale(4.37) rotate(0)"><path fill-rule="evenodd" clip-rule="evenodd" d="M10 20C15.5228 20 20 15.5228 20 10C20 4.47715 15.5228 0 10 0C4.47715 0 0 4.47715 0 10C0 15.5228 4.47715 20 10 20ZM10 17C13.866 17 17 13.866 17 10C17 6.13401 13.866 3 10 3C6.13401 3 3 6.13401 3 10C3 13.866 6.13401 17 10 17Z" fill="#aeb7d5"/></g><rect x="524.4" y="262.2" width="87.4" height="87.4" fill="#c6cde2"/><g transform="translate(524.4,262.2) scale(4.37) rotate(0)"><path fill-rule="evenodd" clip-rule="evenodd" d="M10 20C15.5228 20 20 15.5228 20 10C20 4.47715 15.5228 0 10 0C4.47715 0 0 4.47715 0 10C0 15.5228 4.47715 20 10 20ZM10 17C13.866 17 17 13.866 17 10C17 6.13401 13.866 3 10 3C6.13401 3 3 6.13401 3 10C3 13.866 6.13401 17 10 17Z" fill="#e7eaf3"/></g><rect x="611.8000000000001" y="262.20000000000005" width="87.4" height="87.4" fill="#ffffff"/><rect x="611.8" y="262.2" width="43.7" height="43.7" fill="#d7dbea"/><g transform="translate(611.8,262.2) scale(2.185) rotate(0)"><path fill-rule="evenodd" clip-rule="evenodd" d="M10 20C15.5228 20 20 15.5228 20 10C20 4.47715 15.5228 0 10 0C4.47715 0 0 4.47715 0 10C0 15.5228 4.47715 20 10 20ZM10 17C13.866 17 17 13.866 17 10C17 6.13401 13.866 3 10 3C6.13401 3 3 6.13401 3 10C3 13.866 6.13401 17 10 17Z" fill="#c4cae0"/></g><rect x="655.5" y="262.2" width="43.7" height="43.7" fill="#dce0ed"/><g transform="translate(655.5,262.2) scale(2.185) rotate(0)"><path fill-rule="evenodd" clip-rule="evenodd" d="M10 20C15.5228 20 20 15.5228 20 10C20 4.47715 15.5228 0 10 0C4.47715 0 0 4.47715 0 10C0 15.5228 4.47715 20 10 20ZM10 17C13.866 17 17 13.866 17 10C17 6.13401 13.866 3 10 3C6.13401 3 3 6.13401 3 10C3 13.866 6.13401 17 10 17Z" fill="#b5bdd9"/></g><rect x="611.8" y="305.9" width="43.7" height="43.7" fill="#edeff6"/><g transform="translate(611.8,305.9) scale(2.185) rotate(0)"><path fill-rule="evenodd" clip-rule="evenodd" d="M10 20C15.5228 20 20 15.5228 20 10C20 4.47715 15.5228 0 10 0C4.47715 0 0 4.47715 0 10C0 15.5228 4.47715 20 10 20ZM10 17C13.866 17 17 13.866 17 10C17 6.13401 13.866 3 10 3C6.13401 3 3 6.13401 3 10C3 13.866 6.13401 17 10 17Z" fill="#d6daea"/></g><rect x="655.5" y="305.9" width="43.7" height="43.7" fill="#e1e4ef"/><g transform="translate(655.5,305.9) scale(2.185) rotate(0)"><path d="M19.9981 0.00193429L3.72652 -7.68637e-07L8.4784 4.75382L0 13.2345L6.76585 20L15.2462 11.5208L20 16.2746L19.9981 0.00193429Z" fill="#c9cfe3"/></g><rect x="699.2" y="262.20000000000005" width="87.4" height="87.4" fill="#ffffff"/><rect x="699.2" y="262.2" width="43.7" height="43.7" fill="#e1e4ef"/><g transform="translate(699.2,262.2) scale(2.185) rotate(0)"><path d="M19.9981 0.00193429L3.72652 -7.68637e-07L8.4784 4.75382L0 13.2345L6.76585 20L15.2462 11.5208L20 16.2746L19.9981 0.00193429Z" fill="#b7bfda"/></g><rect x="742.9" y="262.2" width="43.7" height="43.7" fill="#c3cae0"/><g transform="translate(742.9,262.2) scale(2.185) rotate(0)"><path d="M19.9981 0.00193429L3.72652 -7.68637e-07L8.4784 4.75382L0 13.2345L6.76585 20L15.2462 11.5208L20 16.2746L19.9981 0.00193429Z" fill="#b6bed9"/></g><rect x="742.9" y="305.9" width="43.7" height="43.7" fill="#bcc3dc"/><g transform="translate(742.9,305.9) scale(2.185) rotate(0)"><path d="M19.9981 0.00193429L3.72652 -7.68637e-07L8.4784 4.75382L0 13.2345L6.76585 20L15.2462 11.5208L20 16.2746L19.9981 0.00193429Z" fill="#eef0f6"/></g><rect x="786.6" y="262.2" width="87.4" height="87.4" fill="#cfd5e6"/><g transform="translate(786.6,262.2) scale(4.37) rotate(0)"><path d="M19.9981 0.00193429L3.72652 -7.68637e-07L8.4784 4.75382L0 13.2345L6.76585 20L15.2462 11.5208L20 16.2746L19.9981 0.00193429Z" fill="#f6f7fa"/></g><rect x="262.2" y="349.6" width="87.4" height="87.4" fill="#c8cee2"/><g transform="translate(262.2,349.6) scale(4.37) rotate(0)"><path fill-rule="evenodd" clip-rule="evenodd" d="M10 20C15.5228 20 20 15.5228 20 10C20 4.47715 15.5228 0 10 0C4.47715 0 0 4.47715 0 10C0 15.5228 4.47715 20 10 20ZM10 17C13.866 17 17 13.866 17 10C17 6.13401 13.866 3 10 3C6.13401 3 3 6.13401 3 10C3 13.866 6.13401 17 10 17Z" fill="#bec5dd"/></g><rect x="437" y="349.6" width="87.4" height="87.4" fill="#b2bbd7"/><g transform="translate(437,349.6) scale(4.37) rotate(0)"><path d="M19.9981 0.00193429L3.72652 -7.68637e-07L8.4784 4.75382L0 13.2345L6.76585 20L15.2462 11.5208L20 16.2746L19.9981 0.00193429Z" fill="#ced3e6"/></g><rect x="524.4" y="349.6" width="87.4" height="87.4" fill="#f8f9fb"/><g transform="translate(524.4,349.6) scale(4.37) rotate(0)"><path fill-rule="evenodd" clip-rule="evenodd" d="M10 20C15.5228 20 20 15.5228 20 10C20 4.47715 15.5228 0 10 0C4.47715 0 0 4.47715 0 10C0 15.5228 4.47715 20 10 20ZM10 17C13.866 17 17 13.866 17 10C17 6.13401 13.866 3 10 3C6.13401 3 3 6.13401 3 10C3 13.866 6.13401 17 10 17Z" fill="#afb8d5"/></g><rect x="611.8000000000001" y="349.6" width="87.4" height="87.4" fill="#ffffff"/><rect x="611.8" y="349.6" width="43.7" height="43.7" fill="#c9cfe3"/><g transform="translate(611.8,349.6) scale(2.185) rotate(0)"><path d="M19.9981 0.00193429L3.72652 -7.68637e-07L8.4784 4.75382L0 13.2345L6.76585 20L15.2462 11.5208L20 16.2746L19.9981 0.00193429Z" fill="#dadeec"/></g><rect x="655.5" y="349.6" width="43.7" height="43.7" fill="#b3bbd7"/><g transform="translate(655.5,349.6) scale(2.185) rotate(0)"><path d="M19.9981 0.00193429L3.72652 -7.68637e-07L8.4784 4.75382L0 13.2345L6.76585 20L15.2462 11.5208L20 16.2746L19.9981 0.00193429Z" fill="#c8cee3"/></g><rect x="611.8" y="393.3" width="43.7" height="43.7" fill="#c9cfe3"/><g transform="translate(611.8,393.3) scale(2.185) rotate(0)"><path d="M19.9981 0.00193429L3.72652 -7.68637e-07L8.4784 4.75382L0 13.2345L6.76585 20L15.2462 11.5208L20 16.2746L19.9981 0.00193429Z" fill="#eff1f7"/></g><rect x="655.5" y="393.3" width="43.7" height="43.7" fill="#e2e5f0"/><g transform="translate(655.5,393.3) scale(2.185) rotate(0)"><path d="M19.9981 0.00193429L3.72652 -7.68637e-07L8.4784 4.75382L0 13.2345L6.76585 20L15.2462 11.5208L20 16.2746L19.9981 0.00193429Z" fill="#c3cae0"/></g><rect x="699.2" y="349.6" width="87.4" height="87.4" fill="#b9c1db"/><g transform="translate(699.2,349.6) scale(4.37) rotate(0)"><path fill-rule="evenodd" clip-rule="evenodd" d="M10 20C15.5228 20 20 15.5228 20 10C20 4.47715 15.5228 0 10 0C4.47715 0 0 4.47715 0 10C0 15.5228 4.47715 20 10 20ZM10 17C13.866 17 17 13.866 17 10C17 6.13401 13.866 3 10 3C6.13401 3 3 6.13401 3 10C3 13.866 6.13401 17 10 17Z" fill="#edeff6"/></g><rect x="786.6" y="349.6" width="87.4" height="87.4" fill="#d8dceb"/><g transform="translate(786.6,349.6) scale(4.37) rotate(0)"><path fill-rule="evenodd" clip-rule="evenodd" d="M10 20C15.5228 20 20 15.5228 20 10C20 4.47715 15.5228 0 10 0C4.47715 0 0 4.47715 0 10C0 15.5228 4.47715 20 10 20ZM10 17C13.866 17 17 13.866 17 10C17 6.13401 13.866 3 10 3C6.13401 3 3 6.13401 3 10C3 13.866 6.13401 17 10 17Z" fill="#c8cee3"/></g><rect x="874" y="349.6" width="87.4" height="87.4" fill="#ffffff"/><rect x="874" y="349.6" width="43.7" height="43.7" fill="#e2e5f0"/><g transform="translate(874,349.6) scale(2.185) rotate(0)"><path fill-rule="evenodd" clip-rule="evenodd" d="M10 20C15.5228 20 20 15.5228 20 10C20 4.47715 15.5228 0 10 0C4.47715 0 0 4.47715 0 10C0 15.5228 4.47715 20 10 20ZM10 17C13.866 17 17 13.866 17 10C17 6.13401 13.866 3 10 3C6.13401 3 3 6.13401 3 10C3 13.866 6.13401 17 10 17Z" fill="#eceef5"/></g><rect x="874" y="393.3" width="43.7" height="43.7" fill="#c5cbe1"/><g transform="translate(874,393.3) scale(2.185) rotate(0)"><path fill-rule="evenodd" clip-rule="evenodd" d="M10 20C15.5228 20 20 15.5228 20 10C20 4.47715 15.5228 0 10 0C4.47715 0 0 4.47715 0 10C0 15.5228 4.47715 20 10 20ZM10 17C13.866 17 17 13.866 17 10C17 6.13401 13.866 3 10 3C6.13401 3 3 6.13401 3 10C3 13.866 6.13401 17 10 17Z" fill="#c5cce1"/></g><rect x="87.4" y="437" width="87.4" height="87.4" fill="#b3bbd7"/><g transform="translate(87.4,437) scale(4.37) rotate(0)"><path fill-rule="evenodd" clip-rule="evenodd" d="M10 20C15.5228 20 20 15.5228 20 10C20 4.47715 15.5228 0 10 0C4.47715 0 0 4.47715 0 10C0 15.5228 4.47715 20 10 20ZM10 17C13.866 17 17 13.866 17 10C17 6.13401 13.866 3 10 3C6.13401 3 3 6.13401 3 10C3 13.866 6.13401 17 10 17Z" fill="#fcfcfd"/></g><rect x="349.6" y="437" width="87.4" height="87.4" fill="#e1e4ef"/><g transform="translate(349.6,437) scale(4.37) rotate(0)"><path fill-rule="evenodd" clip-rule="evenodd" d="M10 20C15.5228 20 20 15.5228 20 10C20 4.47715 15.5228 0 10 0C4.47715 0 0 4.47715 0 10C0 15.5228 4.47715 20 10 20ZM10 17C13.866 17 17 13.866 17 10C17 6.13401 13.866 3 10 3C6.13401 3 3 6.13401 3 10C3 13.866 6.13401 17 10 17Z" fill="#f8f9fb"/></g><rect x="437" y="437" width="87.4" height="87.4" fill="#afb8d6"/><g transform="translate(437,437) scale(4.37) rotate(0)"><path fill-rule="evenodd" clip-rule="evenodd" d="M10 20C15.5228 20 20 15.5228 20 10C20 4.47715 15.5228 0 10 0C4.47715 0 0 4.47715 0 10C0 15.5228 4.47715 20 10 20ZM10 17C13.866 17 17 13.866 17 10C17 6.13401 13.866 3 10 3C6.13401 3 3 6.13401 3 10C3 13.866 6.13401 17 10 17Z" fill="#ced3e5"/></g><rect x="524.4" y="437" width="87.4" height="87.4" fill="#eaecf4"/><g transform="translate(524.4,437) scale(4.37) rotate(0)"><path fill-rule="evenodd" clip-rule="evenodd" d="M10 20C15.5228 20 20 15.5228 20 10C20 4.47715 15.5228 0 10 0C4.47715 0 0 4.47715 0 10C0 15.5228 4.47715 20 10 20ZM10 17C13.866 17 17 13.866 17 10C17 6.13401 13.866 3 10 3C6.13401 3 3 6.13401 3 10C3 13.866 6.13401 17 10 17Z" fill="#e9ebf3"/></g><rect x="611.8000000000001" y="437" width="87.4" height="87.4" fill="#ffffff"/><rect x="611.8" y="437" width="43.7" height="43.7" fill="#eef0f6"/><g transform="translate(611.8,437) scale(2.185) rotate(0)"><path fill-rule="evenodd" clip-rule="evenodd" d="M10 20C15.5228 20 20 15.5228 20 10C20 4.47715 15.5228 0 10 0C4.47715 0 0 4.47715 0 10C0 15.5228 4.47715 20 10 20ZM10 17C13.866 17 17 13.866 17 10C17 6.13401 13.866 3 10 3C6.13401 3 3 6.13401 3 10C3 13.866 6.13401 17 10 17Z" fill="#eef0f6"/></g><rect x="655.5" y="437" width="43.7" height="43.7" fill="#b8c0da"/><g transform="translate(655.5,437) scale(2.185) rotate(0)"><path fill-rule="evenodd" clip-rule="evenodd" d="M10 20C15.5228 20 20 15.5228 20 10C20 4.47715 15.5228 0 10 0C4.47715 0 0 4.47715 0 10C0 15.5228 4.47715 20 10 20ZM10 17C13.866 17 17 13.866 17 10C17 6.13401 13.866 3 10 3C6.13401 3 3 6.13401 3 10C3 13.866 6.13401 17 10 17Z" fill="#bbc2dc"/></g><rect x="611.8" y="480.7" width="43.7" height="43.7" fill="#b9c1db"/><g transform="translate(611.8,480.7) scale(2.185) rotate(0)"><path fill-rule="evenodd" clip-rule="evenodd" d="M10 20C15.5228 20 20 15.5228 20 10C20 4.47715 15.5228 0 10 0C4.47715 0 0 4.47715 0 10C0 15.5228 4.47715 20 10 20ZM10 17C13.866 17 17 13.866 17 10C17 6.13401 13.866 3 10 3C6.13401 3 3 6.13401 3 10C3 13.866 6.13401 17 10 17Z" fill="#cdd2e5"/></g><rect x="655.5" y="480.7" width="43.7" height="43.7" fill="#dee2ee"/><g transform="translate(655.5,480.7) scale(2.185) rotate(0)"><path fill-rule="evenodd" clip-rule="evenodd" d="M10 20C15.5228 20 20 15.5228 20 10C20 4.47715 15.5228 0 10 0C4.47715 0 0 4.47715 0 10C0 15.5228 4.47715 20 10 20ZM10 17C13.866 17 17 13.866 17 10C17 6.13401 13.866 3 10 3C6.13401 3 3 6.13401 3 10C3 13.866 6.13401 17 10 17Z" fill="#d2d7e8"/></g><rect x="699.2" y="437" width="87.4" height="87.4" fill="#afb8d6"/><g transform="translate(699.2,437) scale(4.37) rotate(0)"><path d="M19.9981 0.00193429L3.72652 -7.68637e-07L8.4784 4.75382L0 13.2345L6.76585 20L15.2462 11.5208L20 16.2746L19.9981 0.00193429Z" fill="#e6e9f2"/></g><rect x="786.6" y="437" width="87.4" height="87.4" fill="#ffffff"/><rect x="830.3" y="437" width="43.7" height="43.7" fill="#d7dcea"/><g transform="translate(830.3,437) scale(2.185) rotate(0)"><path fill-rule="evenodd" clip-rule="evenodd" d="M10 20C15.5228 20 20 15.5228 20 10C20 4.47715 15.5228 0 10 0C4.47715 0 0 4.47715 0 10C0 15.5228 4.47715 20 10 20ZM10 17C13.866 17 17 13.866 17 10C17 6.13401 13.866 3 10 3C6.13401 3 3 6.13401 3 10C3 13.866 6.13401 17 10 17Z" fill="#dcdfed"/></g><rect x="786.6" y="480.7" width="43.7" height="43.7" fill="#b8c0da"/><g transform="translate(786.6,480.7) scale(2.185) rotate(0)"><path fill-rule="evenodd" clip-rule="evenodd" d="M10 20C15.5228 20 20 15.5228 20 10C20 4.47715 15.5228 0 10 0C4.47715 0 0 4.47715 0 10C0 15.5228 4.47715 20 10 20ZM10 17C13.866 17 17 13.866 17 10C17 6.13401 13.866 3 10 3C6.13401 3 3 6.13401 3 10C3 13.866 6.13401 17 10 17Z" fill="#c8cee2"/></g><rect x="349.6" y="524.4000000000001" width="87.4" height="87.4" fill="#ffffff"/><rect x="349.6" y="568.1" width="43.7" height="43.7" fill="#bbc2dc"/><g transform="translate(349.6,568.1) scale(2.185) rotate(0)"><path fill-rule="evenodd" clip-rule="evenodd" d="M10 20C15.5228 20 20 15.5228 20 10C20 4.47715 15.5228 0 10 0C4.47715 0 0 4.47715 0 10C0 15.5228 4.47715 20 10 20ZM10 17C13.866 17 17 13.866 17 10C17 6.13401 13.866 3 10 3C6.13401 3 3 6.13401 3 10C3 13.866 6.13401 17 10 17Z" fill="#cbd0e4"/></g><rect x="437" y="524.4" width="87.4" height="87.4" fill="#ccd1e4"/><g transform="translate(437,524.4) scale(4.37) rotate(0)"><path fill-rule="evenodd" clip-rule="evenodd" d="M10 20C15.5228 20 20 15.5228 20 10C20 4.47715 15.5228 0 10 0C4.47715 0 0 4.47715 0 10C0 15.5228 4.47715 20 10 20ZM10 17C13.866 17 17 13.866 17 10C17 6.13401 13.866 3 10 3C6.13401 3 3 6.13401 3 10C3 13.866 6.13401 17 10 17Z" fill="#f8f9fb"/></g><rect x="611.8" y="524.4" width="87.4" height="87.4" fill="#dbdfec"/><g transform="translate(611.8,524.4) scale(4.37) rotate(0)"><path fill-rule="evenodd" clip-rule="evenodd" d="M10 20C15.5228 20 20 15.5228 20 10C20 4.47715 15.5228 0 10 0C4.47715 0 0 4.47715 0 10C0 15.5228 4.47715 20 10 20ZM10 17C13.866 17 17 13.866 17 10C17 6.13401 13.866 3 10 3C6.13401 3 3 6.13401 3 10C3 13.866 6.13401 17 10 17Z" fill="#f0f1f7"/></g><rect x="699.2" y="524.4000000000001" width="87.4" height="87.4" fill="#ffffff"/><rect x="699.2" y="524.4" width="43.7" height="43.7" fill="#e7eaf3"/><g transform="translate(699.2,524.4) scale(2.185) rotate(0)"><path d="M19.9981 0.00193429L3.72652 -7.68637e-07L8.4784 4.75382L0 13.2345L6.76585 20L15.2462 11.5208L20 16.2746L19.9981 0.00193429Z" fill="#bac2db"/></g><rect x="742.9" y="524.4" width="43.7" height="43.7" fill="#d3d8e8"/><g transform="translate(742.9,524.4) scale(2.185) rotate(0)"><path fill-rule="evenodd" clip-rule="evenodd" d="M10 20C15.5228 20 20 15.5228 20 10C20 4.47715 15.5228 0 10 0C4.47715 0 0 4.47715 0 10C0 15.5228 4.47715 20 10 20ZM10 17C13.866 17 17 13.866 17 10C17 6.13401 13.866 3 10 3C6.13401 3 3 6.13401 3 10C3 13.866 6.13401 17 10 17Z" fill="#d9ddeb"/></g><rect x="699.2" y="568.1" width="43.7" height="43.7" fill="#edeff6"/><g transform="translate(699.2,568.1) scale(2.185) rotate(0)"><path d="M19.9981 0.00193429L3.72652 -7.68637e-07L8.4784 4.75382L0 13.2345L6.76585 20L15.2462 11.5208L20 16.2746L19.9981 0.00193429Z" fill="#f6f7fa"/></g><rect x="786.6" y="524.4" width="87.4" height="87.4" fill="#d5dae9"/><g transform="translate(786.6,524.4) scale(4.37) rotate(0)"><path fill-rule="evenodd" clip-rule="evenodd" d="M10 20C15.5228 20 20 15.5228 20 10C20 4.47715 15.5228 0 10 0C4.47715 0 0 4.47715 0 10C0 15.5228 4.47715 20 10 20ZM10 17C13.866 17 17 13.866 17 10C17 6.13401 13.866 3 10 3C6.13401 3 3 6.13401 3 10C3 13.866 6.13401 17 10 17Z" fill="#d7dcea"/></g><rect x="874" y="524.4" width="87.4" height="87.4" fill="#e8ebf3"/><g transform="translate(874,524.4) scale(4.37) rotate(0)"><path d="M19.9981 0.00193429L3.72652 -7.68637e-07L8.4784 4.75382L0 13.2345L6.76585 20L15.2462 11.5208L20 16.2746L19.9981 0.00193429Z" fill="#ebedf4"/></g><rect x="262.20000000000005" y="611.8000000000001" width="87.4" height="87.4" fill="#ffffff"/><rect x="524.4" y="611.8" width="87.4" height="87.4" fill="#d7dbea"/><g transform="translate(524.4,611.8) scale(4.37) rotate(0)"><path d="M19.9981 0.00193429L3.72652 -7.68637e-07L8.4784 4.75382L0 13.2345L6.76585 20L15.2462 11.5208L20 16.2746L19.9981 0.00193429Z" fill="#c1c8df"/></g><rect x="961.4000000000001" y="611.8000000000001" width="87.4" height="87.4" fill="#ffffff"/><rect x="961.4" y="655.5" width="43.7" height="43.7" fill="#bbc3dc"/><g transform="translate(961.4,655.5) scale(2.185) rotate(0)"><path fill-rule="evenodd" clip-rule="evenodd" d="M10 20C15.5228 20 20 15.5228 20 10C20 4.47715 15.5228 0 10 0C4.47715 0 0 4.47715 0 10C0 15.5228 4.47715 20 10 20ZM10 17C13.866 17 17 13.866 17 10C17 6.13401 13.866 3 10 3C6.13401 3 3 6.13401 3 10C3 13.866 6.13401 17 10 17Z" fill="#c8cee2"/></g></g></svg>